<svg id="Layer_1" data-name="Layer 1" xmlns="http://www.w3.org/2000/svg" viewBox="0 0 495 148"><defs><style>.cls-1{fill:#fff;}.cls-2{fill:#7cad14;}</style></defs><title>opex-logo</title><path class="cls-1" d="M386.16,73.62l53.65,66.74a15.56,15.56,0,0,0,4.31,3.71,12.78,12.78,0,0,0,6.73,1.64h42.52l-59.08-72L493.37,1.32H450.85A12.78,12.78,0,0,0,444.12,3a15.56,15.56,0,0,0-4.31,3.71L386.16,73.4l.08.11Z"/><path class="cls-2" d="M327,145.71l17.13-21L386,73.65c.09-.11.17-.23.32-.41l-59-71.85.59,0q22.19,0,44.37,0a8,8,0,0,1,4,1.27,16,16,0,0,1,4.54,3.84q26.72,33.18,53.46,66.32a.79.79,0,0,1,0,1.2q-26.71,33.15-53.43,66.33a13.38,13.38,0,0,1-8.44,5.18c-.32,0-.63.12-.94.19Z"/><path class="cls-1" d="M115.57,73.62a62.57,62.57,0,0,0-2.77-19.25,40.66,40.66,0,0,0-8-14.49,34.32,34.32,0,0,0-12.71-9.11A43.77,43.77,0,0,0,75,27.61a44.38,44.38,0,0,0-17.26,3.16A34.21,34.21,0,0,0,45,39.88a40.65,40.65,0,0,0-8,14.49,62.27,62.27,0,0,0-2.77,19.25A62.54,62.54,0,0,0,37,93a40.69,40.69,0,0,0,8,14.5,33.85,33.85,0,0,0,12.77,9.05A44.94,44.94,0,0,0,75,119.63a44.33,44.33,0,0,0,17.12-3.12,34,34,0,0,0,12.71-9.05,40.71,40.71,0,0,0,8-14.5A62.84,62.84,0,0,0,115.57,73.62Zm34.24,0a77.39,77.39,0,0,1-5.4,29.09,68.76,68.76,0,0,1-38.78,39A80.33,80.33,0,0,1,75,147.33a80.61,80.61,0,0,1-30.67-5.64,68.8,68.8,0,0,1-38.94-39A77.58,77.58,0,0,1,0,73.62,77.54,77.54,0,0,1,5.39,44.53,69.41,69.41,0,0,1,20.63,21.17,70.46,70.46,0,0,1,44.33,5.64,80.61,80.61,0,0,1,75,0a79.77,79.77,0,0,1,30.63,5.69,70.65,70.65,0,0,1,23.59,15.58,69.65,69.65,0,0,1,15.19,23.35A77.18,77.18,0,0,1,149.81,73.62Z"/><path class="cls-1" d="M181.27,72.17h17.42q13,0,18.8-6.25t5.73-17.45a26.14,26.14,0,0,0-1.48-9,18.39,18.39,0,0,0-4.5-7A20.26,20.26,0,0,0,209.62,28a33.56,33.56,0,0,0-10.93-1.59H181.27Zm0,25.29v48.29H147.83V1.27h50.86q15.23,0,26.17,3.62a50.3,50.3,0,0,1,18,10,38.78,38.78,0,0,1,10.44,15,50.69,50.69,0,0,1,3.37,18.64,55.06,55.06,0,0,1-3.46,19.83,39.73,39.73,0,0,1-10.59,15.47,49.79,49.79,0,0,1-18.06,10.07q-10.94,3.61-25.87,3.62Z"/><polygon class="cls-1" points="348.04 1.36 348.04 27.13 288.87 27.13 288.87 60.82 334.18 60.82 334.18 85.59 288.87 85.59 288.87 119.98 348.04 119.98 348.04 145.75 255.22 145.75 255.22 1.36 348.04 1.36"/></svg>